<svg width="109" height="73" viewBox="0 0 109 73" fill="none" xmlns="http://www.w3.org/2000/svg">
<path d="M24.9609 25.4062L36.875 1.89062H49.9219L30.9766 36.7734V59H18.9453V37.1641L0 1.89062H13.125L24.9609 25.4062ZM108.945 30.3672C108.945 34.612 108.438 38.5052 107.422 42.0469C106.432 45.5625 104.896 48.6094 102.812 51.1875C100.729 53.7656 98.0859 55.7839 94.8828 57.2422L108.633 72.5938H93.125L82.6562 59.7812C82.474 59.7812 82.3177 59.7812 82.1875 59.7812C82.0573 59.7812 81.9141 59.7812 81.7578 59.7812C77.0964 59.7812 73.0599 59.0911 69.6484 57.7109C66.237 56.3047 63.4115 54.2995 61.1719 51.6953C58.9583 49.0911 57.3047 45.9792 56.2109 42.3594C55.1172 38.7396 54.5703 34.7161 54.5703 30.2891C54.5703 24.3776 55.5339 19.2344 57.4609 14.8594C59.4141 10.4583 62.4089 7.04688 66.4453 4.625C70.4818 2.20312 75.612 0.992188 81.8359 0.992188C88.0339 0.992188 93.125 2.20312 97.1094 4.625C101.12 7.04688 104.089 10.4583 106.016 14.8594C107.969 19.2604 108.945 24.4297 108.945 30.3672ZM67.2656 30.3672C67.2656 34.3516 67.7604 37.7891 68.75 40.6797C69.7656 43.5443 71.3411 45.7578 73.4766 47.3203C75.612 48.8568 78.3724 49.625 81.7578 49.625C85.1953 49.625 87.9818 48.8568 90.1172 47.3203C92.2526 45.7578 93.8021 43.5443 94.7656 40.6797C95.7552 37.7891 96.25 34.3516 96.25 30.3672C96.25 24.3776 95.1302 19.6641 92.8906 16.2266C90.651 12.7891 86.9661 11.0703 81.8359 11.0703C78.4245 11.0703 75.638 11.8516 73.4766 13.4141C71.3411 14.9505 69.7656 17.1641 68.75 20.0547C67.7604 22.9193 67.2656 26.3568 67.2656 30.3672Z" fill="url(#paint0_linear_58_5)"/>
<defs>
<linearGradient id="paint0_linear_58_5" x1="-2.05391e-06" y1="3.5" x2="102.5" y2="66" gradientUnits="userSpaceOnUse">
<stop stop-color="#E91E63"/>
<stop offset="1" stop-color="#1976D2"/>
</linearGradient>
</defs>
</svg>
